<svg width="43" height="28" viewBox="0 0 43 28" fill="none" xmlns="http://www.w3.org/2000/svg">
<path d="M14.7402 19.1953C14.7402 20.7891 14.4062 22.2012 13.7383 23.4316C13.082 24.6504 12.1504 25.6113 10.9434 26.3145C9.73633 27.0059 8.3125 27.3516 6.67188 27.3516C5.93359 27.3516 5.21289 27.2988 4.50977 27.1934C3.81836 27.0996 3.12695 26.9355 2.43555 26.7012C1.74414 26.4668 1.0293 26.1445 0.291016 25.7344V19.5469C1.29883 20.2266 2.33008 20.7598 3.38477 21.1465C4.45117 21.5215 5.42383 21.709 6.30273 21.709C6.80664 21.709 7.2168 21.627 7.5332 21.4629C7.86133 21.2988 8.10156 21.0762 8.25391 20.7949C8.41797 20.502 8.5 20.168 8.5 19.793C8.5 19.418 8.43555 19.0723 8.30664 18.7559C8.17773 18.4277 7.89062 18.0703 7.44531 17.6836C7 17.2852 6.30859 16.793 5.37109 16.207C4.62109 15.7266 3.94141 15.2461 3.33203 14.7656C2.72266 14.2734 2.20117 13.7402 1.76758 13.166C1.3457 12.5801 1.01758 11.9062 0.783203 11.1445C0.560547 10.3828 0.449219 9.48633 0.449219 8.45508C0.449219 6.93164 0.748047 5.60742 1.3457 4.48242C1.94336 3.35742 2.82227 2.48437 3.98242 1.86328C5.14258 1.24219 6.56641 0.931641 8.25391 0.931641C9.32031 0.931641 10.3926 1.08398 11.4707 1.38867C12.5488 1.69336 13.6387 2.15625 14.7402 2.77734L13.1055 8.13867C12.2148 7.57617 11.3887 7.16016 10.627 6.89062C9.86523 6.62109 9.15625 6.48633 8.5 6.48633C8.06641 6.48633 7.70898 6.5625 7.42773 6.71484C7.1582 6.85547 6.95898 7.04883 6.83008 7.29492C6.70117 7.54102 6.63672 7.82227 6.63672 8.13867C6.63672 8.5957 6.71289 8.98828 6.86523 9.31641C7.01758 9.64453 7.32812 9.99609 7.79688 10.3711C8.27734 10.7344 9.00391 11.2148 9.97656 11.8125C11.0078 12.4453 11.875 13.1133 12.5781 13.8164C13.293 14.5195 13.832 15.3047 14.1953 16.1719C14.5586 17.0391 14.7402 18.0469 14.7402 19.1953ZM27.7656 27L23.3359 9.7207H23.1953C23.2539 10.4941 23.3008 11.2441 23.3359 11.9707C23.3828 12.6855 23.418 13.3652 23.4414 14.0098C23.4648 14.6543 23.4766 15.2637 23.4766 15.8379V27H17.7637V1.30078H26.1484L30.1387 16.7344H30.2441L34.252 1.30078H42.5664V27H36.6953V15.7324C36.6953 15.0879 36.707 14.4492 36.7305 13.8164C36.7539 13.1719 36.7832 12.5098 36.8184 11.8301C36.8535 11.1504 36.8945 10.4473 36.9414 9.7207H36.8008L32.3008 27H27.7656Z" fill="#F9F9F9"/>
</svg>
